<?xml version="1.0" encoding="utf-8"?>
<!-- Generator: Adobe Illustrator 16.0.0, SVG Export Plug-In . SVG Version: 6.00 Build 0)  -->
<!DOCTYPE svg PUBLIC "-//W3C//DTD SVG 1.1//EN" "http://www.w3.org/Graphics/SVG/1.1/DTD/svg11.dtd">
<svg version="1.1" id="Layer_1" xmlns="http://www.w3.org/2000/svg" xmlns:xlink="http://www.w3.org/1999/xlink" x="0px" y="0px"
	 width="200px" height="30.381px" viewBox="0 0 200 30.381" enable-background="new 0 0 200 30.381" xml:space="preserve">
<g>
	<g>
		<path fill="#FFFFFF" d="M15.19,3.793v9.499c-1.587-1.192-3.56-1.899-5.697-1.899C4.25,11.393,0,15.644,0,20.887
			c0,5.242,4.25,9.494,9.494,9.494s9.494-4.252,9.494-9.494V0C16.892,0,15.193,1.698,15.19,3.793z M9.494,26.583
			c-3.146,0-5.696-2.551-5.696-5.696c0-3.146,2.55-5.696,5.696-5.696s5.697,2.55,5.697,5.696
			C15.19,24.032,12.64,26.583,9.494,26.583z"/>
		<path fill="#FFFFFF" d="M30.506,11.393c-5.243,0-9.494,4.251-9.494,9.494c0,5.242,4.25,9.494,9.494,9.494S40,26.129,40,20.887
			C40,15.644,35.75,11.393,30.506,11.393z M30.506,26.583c-3.146,0-5.696-2.551-5.696-5.696c0-3.146,2.55-5.696,5.696-5.696
			s5.697,2.55,5.697,5.696C36.203,24.032,33.652,26.583,30.506,26.583z"/>
		<path fill="#FFFFFF" d="M57.722,15.19v5.696c0,3.146-2.55,5.696-5.696,5.696s-5.696-2.551-5.696-5.696v-9.494
			c-2.098,0-3.797,1.7-3.797,3.798v5.696c0,5.242,4.25,9.494,9.494,9.494s9.494-4.252,9.494-9.494v-9.494
			C59.422,11.393,57.722,13.093,57.722,15.19z"/>
		<path fill="#FFFFFF" d="M73.544,11.393c-2.137,0-4.109,0.707-5.696,1.898V0c-2.097,0-3.797,1.7-3.797,3.798v17.089
			c0,5.242,4.25,9.494,9.494,9.494s9.494-4.252,9.494-9.494C83.039,15.644,78.788,11.393,73.544,11.393z M73.544,26.583
			c-3.146,0-5.696-2.551-5.696-5.696c0-3.146,2.55-5.696,5.696-5.696s5.696,2.55,5.696,5.696
			C79.241,24.032,76.69,26.583,73.544,26.583z"/>
		<path fill="#FFFFFF" d="M125.51,3.793v9.499c-1.586-1.192-3.559-1.899-5.696-1.899c-5.243,0-9.493,4.251-9.493,9.494
			c0,5.242,4.25,9.494,9.493,9.494s9.494-4.252,9.494-9.494V0C127.211,0,125.513,1.698,125.51,3.793z M119.813,26.583
			c-3.146,0-5.696-2.551-5.696-5.696c0-3.146,2.551-5.696,5.696-5.696s5.696,2.55,5.696,5.696
			C125.51,24.032,122.959,26.583,119.813,26.583z"/>
		<path fill="#FFFFFF" d="M147.029,15.063v5.696c0,3.146-2.55,5.696-5.696,5.696c-3.146,0-5.696-2.55-5.696-5.696v-9.493
			c-2.098,0-3.799,1.7-3.799,3.797v5.696c0,5.243,4.252,9.494,9.495,9.494s9.493-4.251,9.493-9.494v-9.493
			C148.729,11.267,147.029,12.967,147.029,15.063z"/>
		<g>
			<path fill="#FFFFFF" d="M178.477,27.65c-0.094-0.146-0.198-0.283-0.311-0.414l-0.4-0.4c-0.666-0.573-1.528-0.922-2.477-0.922
				c-0.422,0-0.828,0.072-1.207,0.199l0,0c-0.695,0.302-1.46,0.47-2.266,0.47c-3.146,0-5.696-2.551-5.696-5.696
				c0-3.146,2.55-5.696,5.696-5.696c0.803,0,1.564,0.167,2.258,0.466c0.381,0.129,0.788,0.202,1.213,0.202
				c0.967,0,1.845-0.364,2.515-0.958l0.327-0.326c0.126-0.143,0.242-0.292,0.346-0.452c-1.713-1.688-4.064-2.729-6.658-2.729
				c-5.244,0-9.494,4.251-9.494,9.494c0,5.242,4.25,9.494,9.494,9.494C174.438,30.381,176.759,29.369,178.477,27.65
				C178.459,27.668,178.494,27.633,178.477,27.65z"/>
		</g>
		<g>
			<path fill="#FFFFFF" d="M162.895,28.891c-0.138-0.329-0.31-0.645-0.542-0.908c-0.138-0.156-0.435-0.451-0.59-0.59
				c-0.62-0.556-1.474-0.835-2.372-0.835c-0.02,0-0.039,0.003-0.059,0.003c-0.092,0.014-0.184,0.022-0.277,0.022
				c-1.049,0-1.899-0.851-1.899-1.898V15.19h1.899c2.098,0,3.797-1.699,3.797-3.798h-5.696V0c-2.098,0-3.797,1.7-3.797,3.798v7.595
				v3.798v9.494c0,3.145,2.55,5.696,5.696,5.696C160.627,30.381,161.863,29.921,162.895,28.891
				C162.834,28.952,162.895,28.891,162.895,28.891z"/>
		</g>
		<g>
			<path fill="#FFFFFF" d="M109.758,27.656c-0.088-0.133-0.184-0.262-0.285-0.384l-0.451-0.449c-0.66-0.56-1.516-0.897-2.448-0.897
				c-0.513,0-1.002,0.103-1.448,0.286l0,0c-0.628,0.239-1.309,0.371-2.021,0.371c-0.88,0-1.713-0.199-2.456-0.556l7.8-7.829l0,0
				c1.278-1.492,1.216-3.739-0.198-5.152c-0.207-0.207-0.436-0.384-0.674-0.533c-1.333-0.713-2.855-1.12-4.472-1.12
				c-5.243,0-9.494,4.251-9.494,9.494c0,5.242,4.251,9.494,9.494,9.494C105.721,30.381,108.039,29.369,109.758,27.656
				C109.74,27.674,109.758,27.656,109.758,27.656z M97.408,20.887c0-3.146,2.55-5.696,5.697-5.696c0.879,0,1.71,0.201,2.454,0.558
				l-7.595,7.594C97.607,22.598,97.408,21.766,97.408,20.887z"/>
		</g>
		<path fill="#FFFFFF" d="M91.474,26.57c-0.067,0.009-0.136,0.013-0.207,0.013c-1.048,0-1.898-0.851-1.898-1.898v-5.371
			c0,0-0.001,0-0.001,0V0C87.27,0,85.57,1.7,85.57,3.798v20.887h0.001c0,3.145,2.55,5.696,5.696,5.696
			c1.428,0,2.731-0.526,3.73-1.396C94.446,27.576,93.079,26.575,91.474,26.57z"/>
		<path fill="#FFFFFF" d="M190.507,11.393c-2.138,0-4.11,0.707-5.696,1.898V0c-2.098,0-3.798,1.7-3.798,3.798v17.089v5.696v3.798
			c2.099,0,3.798-1.7,3.798-3.798v-5.696c0-3.146,2.551-5.696,5.696-5.696s5.696,2.55,5.696,5.696v5.696
			c0,2.098,1.699,3.798,3.797,3.798v-9.494C200,15.644,195.75,11.393,190.507,11.393z"/>
	</g>
	<g>
		<path fill="#FFFFFF" d="M15.19,3.793v9.499c-1.587-1.192-3.56-1.899-5.697-1.899C4.25,11.393,0,15.644,0,20.887
			c0,5.242,4.25,9.494,9.494,9.494s9.494-4.252,9.494-9.494V0C16.892,0,15.193,1.698,15.19,3.793z M9.494,26.583
			c-3.146,0-5.696-2.551-5.696-5.696c0-3.146,2.55-5.696,5.696-5.696s5.697,2.55,5.697,5.696
			C15.19,24.032,12.64,26.583,9.494,26.583z"/>
		<path fill="#FFFFFF" d="M30.506,11.393c-5.243,0-9.494,4.251-9.494,9.494c0,5.242,4.25,9.494,9.494,9.494S40,26.129,40,20.887
			C40,15.644,35.75,11.393,30.506,11.393z M30.506,26.583c-3.146,0-5.696-2.551-5.696-5.696c0-3.146,2.55-5.696,5.696-5.696
			s5.697,2.55,5.697,5.696C36.203,24.032,33.652,26.583,30.506,26.583z"/>
		<path fill="#FFFFFF" d="M57.722,15.19v5.696c0,3.146-2.55,5.696-5.696,5.696s-5.696-2.551-5.696-5.696v-9.494
			c-2.098,0-3.797,1.7-3.797,3.798v5.696c0,5.242,4.25,9.494,9.494,9.494s9.494-4.252,9.494-9.494v-9.494
			C59.422,11.393,57.722,13.093,57.722,15.19z"/>
		<path fill="#FFFFFF" d="M73.544,11.393c-2.137,0-4.109,0.707-5.696,1.898V0c-2.097,0-3.797,1.7-3.797,3.798v17.089
			c0,5.242,4.25,9.494,9.494,9.494s9.494-4.252,9.494-9.494C83.039,15.644,78.788,11.393,73.544,11.393z M73.544,26.583
			c-3.146,0-5.696-2.551-5.696-5.696c0-3.146,2.55-5.696,5.696-5.696s5.696,2.55,5.696,5.696
			C79.241,24.032,76.69,26.583,73.544,26.583z"/>
		<path fill="#FFFFFF" d="M125.51,3.793v9.499c-1.586-1.192-3.559-1.899-5.696-1.899c-5.243,0-9.493,4.251-9.493,9.494
			c0,5.242,4.25,9.494,9.493,9.494s9.494-4.252,9.494-9.494V0C127.211,0,125.513,1.698,125.51,3.793z M119.813,26.583
			c-3.146,0-5.696-2.551-5.696-5.696c0-3.146,2.551-5.696,5.696-5.696s5.696,2.55,5.696,5.696
			C125.51,24.032,122.959,26.583,119.813,26.583z"/>
		<path fill="#FFFFFF" d="M147.029,15.063v5.696c0,3.146-2.55,5.696-5.696,5.696c-3.146,0-5.696-2.55-5.696-5.696v-9.493
			c-2.098,0-3.799,1.7-3.799,3.797v5.696c0,5.243,4.252,9.494,9.495,9.494s9.493-4.251,9.493-9.494v-9.493
			C148.729,11.267,147.029,12.967,147.029,15.063z"/>
		<g>
			<path fill="#FFFFFF" d="M178.477,27.65c-0.094-0.146-0.198-0.283-0.311-0.414l-0.4-0.4c-0.666-0.573-1.528-0.922-2.477-0.922
				c-0.422,0-0.828,0.072-1.207,0.199l0,0c-0.695,0.302-1.46,0.47-2.266,0.47c-3.146,0-5.696-2.551-5.696-5.696
				c0-3.146,2.55-5.696,5.696-5.696c0.803,0,1.564,0.167,2.258,0.466c0.381,0.129,0.788,0.202,1.213,0.202
				c0.967,0,1.845-0.364,2.515-0.958l0.327-0.326c0.126-0.143,0.242-0.292,0.346-0.452c-1.713-1.688-4.064-2.729-6.658-2.729
				c-5.244,0-9.494,4.251-9.494,9.494c0,5.242,4.25,9.494,9.494,9.494C174.438,30.381,176.759,29.369,178.477,27.65
				C178.459,27.668,178.494,27.633,178.477,27.65z"/>
		</g>
		<g>
			<path fill="#FFFFFF" d="M162.895,28.891c-0.138-0.329-0.31-0.645-0.542-0.908c-0.138-0.156-0.435-0.451-0.59-0.59
				c-0.62-0.556-1.474-0.835-2.372-0.835c-0.02,0-0.039,0.003-0.059,0.003c-0.092,0.014-0.184,0.022-0.277,0.022
				c-1.049,0-1.899-0.851-1.899-1.898V15.19h1.899c2.098,0,3.797-1.699,3.797-3.798h-5.696V0c-2.098,0-3.797,1.7-3.797,3.798v7.595
				v3.798v9.494c0,3.145,2.55,5.696,5.696,5.696C160.627,30.381,161.863,29.921,162.895,28.891
				C162.834,28.952,162.895,28.891,162.895,28.891z"/>
		</g>
		<g>
			<path fill="#FFFFFF" d="M109.758,27.656c-0.088-0.133-0.184-0.262-0.285-0.384l-0.451-0.449c-0.66-0.56-1.516-0.897-2.448-0.897
				c-0.513,0-1.002,0.103-1.448,0.286l0,0c-0.628,0.239-1.309,0.371-2.021,0.371c-0.88,0-1.713-0.199-2.456-0.556l7.8-7.829l0,0
				c1.278-1.492,1.216-3.739-0.198-5.152c-0.207-0.207-0.436-0.384-0.674-0.533c-1.333-0.713-2.855-1.12-4.472-1.12
				c-5.243,0-9.494,4.251-9.494,9.494c0,5.242,4.251,9.494,9.494,9.494C105.721,30.381,108.039,29.369,109.758,27.656
				C109.74,27.674,109.758,27.656,109.758,27.656z M97.408,20.887c0-3.146,2.55-5.696,5.697-5.696c0.879,0,1.71,0.201,2.454,0.558
				l-7.595,7.594C97.607,22.598,97.408,21.766,97.408,20.887z"/>
		</g>
		<path fill="#FFFFFF" d="M91.474,26.57c-0.067,0.009-0.136,0.013-0.207,0.013c-1.048,0-1.898-0.851-1.898-1.898v-5.371
			c0,0-0.001,0-0.001,0V0C87.27,0,85.57,1.7,85.57,3.798v20.887h0.001c0,3.145,2.55,5.696,5.696,5.696
			c1.428,0,2.731-0.526,3.73-1.396C94.446,27.576,93.079,26.575,91.474,26.57z"/>
		<path fill="#FFFFFF" d="M190.507,11.393c-2.138,0-4.11,0.707-5.696,1.898V0c-2.098,0-3.798,1.7-3.798,3.798v17.089v5.696v3.798
			c2.099,0,3.798-1.7,3.798-3.798v-5.696c0-3.146,2.551-5.696,5.696-5.696s5.696,2.55,5.696,5.696v5.696
			c0,2.098,1.699,3.798,3.797,3.798v-9.494C200,15.644,195.75,11.393,190.507,11.393z"/>
	</g>
</g>
</svg>
